<svg id="Layer_1" data-name="Layer 1" xmlns="http://www.w3.org/2000/svg" viewBox="0 0 187.1 187.1"><defs><style>.cls-1{fill:#616e7d;}.cls-2{fill:#aad4c8;}</style></defs><title>delete</title><path class="cls-1" d="M204.27,221.53h70.67c.09,1.2.25,2.28.25,3.36q0,32.94,0,65.87c0,8.85-5.15,13.9-14.1,13.92q-21.46,0-42.91,0c-8.94,0-14.07-5.08-14.08-13.94q-.06-32.76,0-65.5C204.09,224.13,204.19,223,204.27,221.53Zm37.92,73.69V230.87h-5.1v64.35Zm-17.15,0V231h-5v64.31Zm29.07-.06h5.12V230.89h-5.12Z" transform="translate(-146.1 -156.45)"/><path class="cls-1" d="M280.14,216.91h-81a13.1,13.1,0,0,1,13-13.87q27.47-.4,54.93,0A13.16,13.16,0,0,1,280.14,216.91Z" transform="translate(-146.1 -156.45)"/><path class="cls-1" d="M256.76,199.65H222.83c-.08-3.09,1.8-4.22,4.2-4.26,8.4-.13,16.81-.1,25.21,0C254.77,195.4,256.3,196.81,256.76,199.65Z" transform="translate(-146.1 -156.45)"/><path class="cls-2" d="M146.1,250.22a93.55,93.55,0,1,0,93.33-93.77A93.55,93.55,0,0,0,146.1,250.22Zm169.7-.4a76.16,76.16,0,1,1-76.33-76A76.16,76.16,0,0,1,315.8,249.82Z" transform="translate(-146.1 -156.45)"/></svg>