<svg id="Layer_1" data-name="Layer 1" xmlns="http://www.w3.org/2000/svg" viewBox="0 0 491.71 464.63"><defs><style>.cls-1{fill:#f50057;}</style></defs><title>left_arrow</title><path class="cls-1" d="M238.28,232.33l257.28,250.4a20.9,20.9,0,0,1-7.41-1.14,129.57,129.57,0,0,1-21.27-8.36,518.26,518.26,0,0,1-49.78-27.49c-62.72-38.62-122.32-81.56-178.16-129.62a494.35,494.35,0,0,1-46.12-44.5,155.47,155.47,0,0,1-16.9-21.71,96.57,96.57,0,0,1-6-11.44c-2.69-6-2.54-12.12-.2-18.24a57.71,57.71,0,0,1,6.85-12.56,136,136,0,0,1,17.59-19.93c14.92-14.29,31.35-26.71,48.25-38.52,29-20.25,59.27-38.42,90.15-55.6,35.65-19.84,72-38.32,109.26-54.92,15.27-6.8,30.67-13.3,46.57-18.52a43.8,43.8,0,0,1,7.26-1.81c-.56.55-1.11,1.13-1.7,1.66-18.59,17.18-37.72,33.75-57,50.14-49.23,41.82-99.33,82.57-149.7,123q-23.37,18.76-46.86,37.39C239.73,231.09,239.1,231.64,238.28,232.33Z" transform="translate(-3.93 -18.14)"/><path class="cls-1" d="M74.29,232.1,331.57,482.5a20.74,20.74,0,0,1-7.42-1.14A129.82,129.82,0,0,1,302.89,473a518.41,518.41,0,0,1-49.79-27.49A1388.1,1388.1,0,0,1,74.94,315.89,496.77,496.77,0,0,1,28.82,271.4a156.84,156.84,0,0,1-16.89-21.72,95.87,95.87,0,0,1-6-11.44c-2.68-6-2.53-12.12-.19-18.24a57.75,57.75,0,0,1,6.85-12.56,136,136,0,0,1,17.59-19.93C45.08,173.22,61.51,160.8,78.41,149c29-20.24,59.27-38.41,90.15-55.6,35.65-19.83,72-38.32,109.25-54.91,15.28-6.8,30.67-13.31,46.58-18.53a44.81,44.81,0,0,1,7.26-1.81c-.57.56-1.12,1.13-1.7,1.66-18.6,17.18-37.73,33.75-57,50.14-49.22,41.83-99.32,82.58-149.69,123q-23.37,18.77-46.86,37.39C75.73,230.86,75.11,231.41,74.29,232.1Z" transform="translate(-3.93 -18.14)"/></svg>