<svg id="Layer_1" data-name="Layer 1" xmlns="http://www.w3.org/2000/svg" viewBox="0 0 491.71 464.63"><defs><style>.cls-1{fill:#f50057;}</style></defs><title>right_arrow</title><path class="cls-1" d="M261.5,268.12,4.23,17.72a20.9,20.9,0,0,1,7.41,1.15,128.16,128.16,0,0,1,21.27,8.36A518.17,518.17,0,0,1,82.69,54.71C145.41,93.34,205,136.27,260.85,184.34A496.77,496.77,0,0,1,307,228.83a155.47,155.47,0,0,1,16.9,21.71,98.21,98.21,0,0,1,6,11.45c2.69,6,2.53,12.12.19,18.24a58.14,58.14,0,0,1-6.84,12.56,136,136,0,0,1-17.59,19.92c-14.93,14.3-31.35,26.72-48.26,38.52-29,20.25-59.26,38.42-90.14,55.6-35.65,19.84-72,38.33-109.26,54.92-15.27,6.8-30.67,13.3-46.57,18.52a42.71,42.71,0,0,1-7.27,1.81c.57-.55,1.12-1.12,1.7-1.66,18.6-17.18,37.73-33.75,57-50.14,49.22-41.82,99.33-82.57,149.69-123q23.38-18.76,46.86-37.4C260.06,269.36,260.68,268.81,261.5,268.12Z" transform="translate(-4.14 -17.69)"/><path class="cls-1" d="M425.5,268.35,168.22,18a20.77,20.77,0,0,1,7.42,1.15,128.89,128.89,0,0,1,21.26,8.35,518.41,518.41,0,0,1,49.79,27.49C309.4,93.56,369,136.5,424.85,184.56A496.88,496.88,0,0,1,471,229.06a156.16,156.16,0,0,1,16.89,21.71,96.77,96.77,0,0,1,6,11.45c2.68,6,2.53,12.11.19,18.24A57.87,57.87,0,0,1,487.22,293a136,136,0,0,1-17.59,19.93c-14.92,14.29-31.35,26.72-48.25,38.52-29,20.25-59.27,38.42-90.15,55.6C295.58,426.9,259.25,445.39,222,462c-15.28,6.8-30.68,13.3-46.58,18.52a42.83,42.83,0,0,1-7.26,1.81c.56-.55,1.11-1.12,1.7-1.66,18.59-17.18,37.73-33.75,57-50.14,49.23-41.82,99.33-82.57,149.7-123q23.37-18.76,46.86-37.4C424.06,269.59,424.68,269,425.5,268.35Z" transform="translate(-4.14 -17.69)"/></svg>