<svg xmlns="http://www.w3.org/2000/svg" viewBox="0 0 684.55 664"><defs><style>.cls-1{fill:#616e7d;}.cls-2{fill:#aad4c8;}</style></defs><title>Asset 2</title><g id="Layer_2" data-name="Layer 2"><g id="Object"><polygon class="cls-1" points="134.6 347.9 124.7 348.16 124.7 348.17 134.6 347.9"/><path class="cls-1" d="M177.37,507.84c-43-43.07-67.25-94.29-72.1-152.36l-59.88,6.7-.8.09-.81,0c-4.68.15-10.83.4-16.91,1.14q-1.95.24-3.9.54a333.18,333.18,0,0,0,556.2,212.87l-58.62-58.62a250.72,250.72,0,0,1-343.18-10.39Z"/><path class="cls-1" d="M351.94,0A331.09,331.09,0,0,0,116.28,97.61q-11.11,11.1-21,23.07l59,59a250.2,250.2,0,0,1,447.89,147q41.12-6.75,82.38-13.31A333.1,333.1,0,0,0,352,0Z"/><polygon class="cls-2" points="34.47 59.88 0 293.06 232.58 257.98 154.28 179.69 95.28 120.68 34.47 59.88"/><polygon class="cls-2" points="520.55 518.23 579.17 576.85 639.2 636.88 674.28 404.3 441.09 438.77 520.55 518.23"/></g></g></svg>